<svg width="967" height="967" viewBox="0 0 967 967" fill="none" xmlns="http://www.w3.org/2000/svg">
<path fill-rule="evenodd" clip-rule="evenodd" d="M483.5 0C216.47 0 0 216.47 0 483.5C0 750.53 216.47 967 483.5 967C750.53 967 967 750.53 967 483.5C967 216.47 750.53 0 483.5 0ZM340.625 298.089C369.792 275.923 455.025 233.689 562.625 242.089C697.125 252.589 697.125 417.09 591.125 456.09C485.125 495.09 486.625 518.59 498.125 537.09C503.195 545.246 533.822 538.242 571.541 529.617C619.383 518.677 678.635 505.127 711.625 516.59C770.625 537.09 824.625 650.09 711.625 706.09C598.625 762.09 601.125 682.09 625.625 653.09C645.225 629.89 617.626 618.59 601.626 615.09C580.626 609.923 495.126 622.09 458.126 646.09C448.833 652.118 438.048 661.056 426.536 670.598C383.346 706.393 329.917 750.675 306.625 681.59C283.025 611.59 369.459 516.423 415.625 477.59C436.459 457.423 473.826 409.39 456.625 378.59C439.425 347.79 392.459 370.423 371.125 385.59C359.292 393.923 333.925 423.99 327.125 477.59C320.326 531.19 274.292 550.256 252.125 553.09C226.459 554.256 178.326 539.49 191.125 471.09C203.925 402.69 296.125 327.256 340.625 298.089Z" fill="white"/>
</svg>
