<svg width="2648" height="967" viewBox="0 0 2648 967" fill="none" xmlns="http://www.w3.org/2000/svg">
<path d="M1394.98 684.463C1376.99 684.463 1368 675.503 1368 657.583V324.407C1368 306.487 1376.99 297.527 1394.98 297.527C1412.96 297.527 1421.96 306.487 1421.96 324.407V354.824C1436.15 335.961 1453.67 321.106 1474.49 310.26C1495.32 298.941 1518.27 293.282 1543.36 293.282C1565.13 293.282 1581.93 296.348 1593.76 302.478C1605.6 308.609 1610.09 317.569 1607.25 329.359C1604.89 340.205 1599.21 345.864 1590.21 346.336C1581.69 346.336 1571.52 345.864 1559.69 344.921C1533.18 342.563 1509.52 345.393 1488.69 353.41C1468.34 360.955 1452.01 372.745 1439.7 388.779C1427.87 404.813 1421.96 423.912 1421.96 446.076V657.583C1421.96 675.503 1412.96 684.463 1394.98 684.463Z" fill="white"/>
<path d="M1840.8 688C1802.46 688 1768.39 679.747 1738.57 663.242C1709.23 646.265 1686.03 622.921 1669 593.211C1652.43 563.501 1644.15 529.547 1644.15 491.349C1644.15 452.679 1651.96 418.724 1667.58 389.486C1683.67 359.776 1705.68 336.433 1733.6 319.455C1761.52 302.478 1793.71 293.99 1830.15 293.99C1866.12 293.99 1897.36 302.243 1923.87 318.748C1950.84 334.782 1971.67 357.182 1986.34 385.949C2001.01 414.716 2008.35 447.491 2008.35 484.275C2008.35 491.82 2005.98 497.951 2001.25 502.667C1996.52 506.911 1990.36 509.033 1982.79 509.033H1695.97C1698.81 534.499 1706.62 557.135 1719.4 576.941C1732.18 596.276 1748.98 611.603 1769.81 622.921C1790.63 633.768 1814.3 639.191 1840.8 639.191C1857.84 639.191 1874.88 636.361 1891.92 630.702C1909.43 624.572 1923.39 617.026 1933.81 608.066C1939.01 603.822 1944.93 601.7 1951.55 601.7C1958.18 601.228 1963.86 602.879 1968.59 606.651C1974.75 612.31 1977.82 618.441 1977.82 625.043C1978.3 631.645 1975.69 637.305 1970.01 642.02C1954.39 655.225 1934.51 666.307 1910.38 675.267C1886.24 683.756 1863.05 688 1840.8 688ZM1830.15 342.799C1793.71 342.799 1763.65 354.117 1739.99 376.753C1716.32 398.918 1702.13 427.92 1697.39 463.761H1957.23C1953.45 427.92 1940.19 398.918 1917.48 376.753C1895.23 354.117 1866.12 342.799 1830.15 342.799Z" fill="white"/>
<path d="M2263.03 688C2224.69 688 2190.61 679.747 2160.79 663.242C2131.45 646.265 2108.26 622.921 2091.22 593.211C2074.65 563.501 2066.37 529.547 2066.37 491.349C2066.37 452.679 2074.18 418.724 2089.8 389.486C2105.89 359.776 2127.9 336.433 2155.82 319.455C2183.75 302.478 2215.93 293.99 2252.38 293.99C2288.35 293.99 2319.59 302.243 2346.09 318.748C2373.07 334.782 2393.89 357.182 2408.57 385.949C2423.24 414.716 2430.57 447.491 2430.57 484.275C2430.57 491.82 2428.21 497.951 2423.47 502.667C2418.74 506.911 2412.59 509.033 2405.02 509.033H2118.2C2121.04 534.499 2128.85 557.135 2141.63 576.941C2154.4 596.276 2171.21 611.603 2192.03 622.921C2212.86 633.768 2236.52 639.191 2263.03 639.191C2280.06 639.191 2297.1 636.361 2314.14 630.702C2331.65 624.572 2345.62 617.026 2356.03 608.066C2361.24 603.822 2367.15 601.7 2373.78 601.7C2380.4 601.228 2386.08 602.879 2390.82 606.651C2396.97 612.31 2400.05 618.441 2400.05 625.043C2400.52 631.645 2397.92 637.305 2392.24 642.02C2376.62 655.225 2356.74 666.307 2332.6 675.267C2308.46 683.756 2285.27 688 2263.03 688ZM2252.38 342.799C2215.93 342.799 2185.88 354.117 2162.21 376.753C2138.55 398.918 2124.35 427.92 2119.62 463.761H2379.46C2375.67 427.92 2362.42 398.918 2339.7 376.753C2317.46 354.117 2288.35 342.799 2252.38 342.799Z" fill="white"/>
<path d="M2606.82 684.463C2578.43 684.463 2555 673.145 2536.54 650.509C2518.08 627.401 2508.85 597.927 2508.85 562.086V158.88C2508.85 150.863 2511.22 144.497 2515.95 139.781C2521.16 134.594 2527.78 132 2535.83 132C2543.87 132 2550.26 134.594 2555 139.781C2560.2 144.497 2562.81 150.863 2562.81 158.88V562.086C2562.81 582.365 2566.83 598.87 2574.88 611.603C2583.39 624.336 2594.04 630.702 2606.82 630.702H2624.57C2631.67 630.702 2637.35 633.296 2641.61 638.483C2645.87 643.199 2648 649.566 2648 657.583C2648 665.6 2644.92 672.202 2638.77 677.389C2633.09 682.105 2625.52 684.463 2616.05 684.463H2606.82Z" fill="white"/>
<path fill-rule="evenodd" clip-rule="evenodd" d="M483.5 0C216.47 0 0 216.47 0 483.5C0 750.53 216.47 967 483.5 967C750.53 967 967 750.53 967 483.5C967 216.47 750.53 0 483.5 0ZM340.625 298.089C369.792 275.923 455.025 233.689 562.625 242.089C697.125 252.589 697.125 417.09 591.125 456.09C485.125 495.09 486.625 518.59 498.125 537.09C503.195 545.246 533.822 538.242 571.541 529.617C619.383 518.677 678.635 505.127 711.625 516.59C770.625 537.09 824.625 650.09 711.625 706.09C598.625 762.09 601.125 682.09 625.625 653.09C645.225 629.89 617.626 618.59 601.626 615.09C580.626 609.923 495.126 622.09 458.126 646.09C448.833 652.118 438.048 661.056 426.536 670.598C383.346 706.393 329.917 750.675 306.625 681.59C283.025 611.59 369.459 516.423 415.625 477.59C436.459 457.423 473.826 409.39 456.625 378.59C439.425 347.79 392.459 370.423 371.125 385.59C359.292 393.923 333.925 423.99 327.125 477.59C320.326 531.19 274.292 550.256 252.125 553.09C226.459 554.256 178.326 539.49 191.125 471.09C203.925 402.69 296.125 327.256 340.625 298.089Z" fill="white"/>
</svg>
