<svg width="804" height="113" viewBox="0 0 804 113" fill="none" xmlns="http://www.w3.org/2000/svg">
<path d="M0 111.023V55.5114C0 48.6169 1.89022 43.2432 5.67067 39.3903C9.55061 35.4361 14.8731 33.4589 21.6381 33.4589H34.7702V42.7362H23.7273C19.3499 42.7362 16.0172 43.9529 13.729 46.3863C11.5403 48.8196 10.446 52.2669 10.446 56.7281V111.023H0Z" fill="white"/>
<path d="M80.7756 113C73.1152 113 66.5492 111.175 61.0775 107.525C55.6058 103.875 51.4274 99.0081 48.5423 92.9246C45.6572 86.7398 44.2147 79.8452 44.2147 72.2409C44.2147 64.5352 45.7567 57.6406 48.8408 51.5572C52.0243 45.3724 56.5509 40.5056 62.4206 36.9569C68.3897 33.4083 75.5029 31.6339 83.7602 31.6339C91.6196 31.6339 98.3846 33.4083 104.055 36.9569C109.825 40.5056 114.253 45.271 117.337 51.253C120.52 57.2351 122.112 63.9776 122.112 71.4805V111.023H111.815V93.6851H111.367C109.875 96.7268 107.736 99.7178 104.951 102.658C102.265 105.598 98.882 108.083 94.8031 110.11C90.8237 112.037 86.1479 113 80.7756 113ZM83.0141 103.875C88.5853 103.875 93.5098 102.506 97.7877 99.7685C102.066 96.9296 105.448 93.1274 107.935 88.362C110.422 83.4953 111.616 78.0202 111.517 71.9367C111.517 65.9547 110.373 60.6317 108.084 55.9677C105.796 51.3037 102.563 47.603 98.3846 44.8654C94.2062 42.1279 89.2319 40.7591 83.4617 40.7591C77.4926 40.7591 72.3691 42.1786 68.0912 45.0175C63.8134 47.755 60.5303 51.5572 58.2422 56.424C55.954 61.1893 54.8099 66.6137 54.8099 72.6972C54.8099 78.3751 55.9043 83.5967 58.0929 88.362C60.3811 93.026 63.6144 96.7775 67.7928 99.6164C71.9712 102.455 77.0449 103.875 83.0141 103.875Z" fill="white"/>
<path d="M143.513 111.023V101.746H179.328C183.904 101.746 187.436 100.326 189.923 97.4872C192.41 94.6483 193.654 91.5052 193.654 88.0579C193.654 84.8134 192.56 81.9237 190.371 79.389C188.182 76.7528 184.949 75.4347 180.671 75.4347H164.704C157.342 75.4347 151.572 73.559 147.393 69.8075C143.314 66.0561 141.275 61.0372 141.275 54.751C141.275 50.9995 142.17 47.5523 143.961 44.4091C145.752 41.1646 148.239 38.5285 151.422 36.5007C154.705 34.4729 158.585 33.4589 163.062 33.4589H197.534V42.7362H164.107C160.227 42.7362 157.193 43.9529 155.004 46.3863C152.815 48.7183 151.721 51.4051 151.721 54.4468C151.721 57.3872 152.815 60.0233 155.004 62.3553C157.193 64.6873 160.476 65.8533 164.853 65.8533H179.776C187.834 65.8533 193.903 67.8811 197.982 71.9367C202.16 75.891 204.249 81.1126 204.249 87.6016C204.249 91.5558 203.254 95.358 201.265 99.0081C199.374 102.557 196.688 105.446 193.206 107.677C189.724 109.908 185.695 111.023 181.119 111.023H143.513Z" fill="white"/>
<path d="M246.751 111.023C239.986 111.023 234.664 109.046 230.784 105.092C227.003 101.137 225.113 95.7636 225.113 88.9704V42.5841H211.832V33.4589H225.113V13.9919H235.559V33.4589H263.763V42.5841H235.559V87.7537C235.559 92.2149 236.654 95.6622 238.842 98.0956C241.031 100.529 244.364 101.746 248.84 101.746H263.465V111.023H246.751Z" fill="white"/>
<path d="M317.44 111.023C309.282 111.023 301.97 109.502 295.503 106.46C289.037 103.317 283.963 98.856 280.282 93.0767C276.601 87.2974 274.761 80.3522 274.761 72.2409C274.761 64.738 276.253 57.9448 279.238 51.8614C282.222 45.6765 286.401 40.7591 291.773 37.109C297.244 33.4589 303.612 31.6339 310.874 31.6339C318.335 31.6339 324.653 33.3069 329.826 36.6528C334.999 39.9987 338.929 44.5105 341.615 50.1884C344.301 55.8663 345.644 62.2539 345.644 69.3513C345.644 71.6833 345.445 73.8632 345.047 75.891H285.804C286.102 81.5689 287.694 86.3342 290.579 90.1871C293.464 94.0399 297.195 96.9296 301.771 98.856C306.447 100.782 311.471 101.746 316.843 101.746H336.094V111.023H317.44ZM285.804 68.2867H335.049C335.049 65.7519 334.701 62.913 334.004 59.7698C333.407 56.6267 332.214 53.585 330.423 50.6447C328.632 47.7044 326.145 45.3217 322.961 43.4966C319.778 41.5702 315.649 40.607 310.576 40.607C305.402 40.607 300.975 42.0265 297.294 44.8654C293.713 47.603 290.927 51.1009 288.937 55.3594C286.948 59.5164 285.903 63.8255 285.804 68.2867Z" fill="white"/>
<path d="M364.035 111.023V55.5114C364.035 48.6169 365.926 43.2432 369.706 39.3903C373.586 35.4361 378.908 33.4589 385.673 33.4589H398.806V42.7362H387.763C383.385 42.7362 380.053 43.9529 377.764 46.3863C375.576 48.8196 374.481 52.2669 374.481 56.7281V111.023H364.035Z" fill="white"/>
<path d="M409.892 112.087C408.897 112.087 408.001 111.682 407.205 110.871C406.41 110.06 406.012 109.147 406.012 108.133C406.012 107.018 406.41 106.105 407.205 105.396C408.001 104.585 408.897 104.179 409.892 104.179C410.986 104.179 411.881 104.585 412.578 105.396C413.374 106.105 413.772 107.018 413.772 108.133C413.772 109.147 413.374 110.06 412.578 110.871C411.881 111.682 410.986 112.087 409.892 112.087Z" fill="white"/>
<path d="M462.132 112.848C460.242 112.848 458.6 112.189 457.207 110.871C455.914 109.553 454.621 107.322 453.327 104.179L424.228 33.611H428.705L457.207 103.875C458.003 105.801 458.799 107.17 459.595 107.981C460.391 108.792 461.286 109.198 462.281 109.198C463.276 109.198 464.072 108.792 464.669 107.981C465.365 107.17 466.111 105.801 466.907 103.875L495.708 33.611H500.185L470.787 104.483C469.494 107.626 468.201 109.806 466.907 111.023C465.614 112.24 464.022 112.848 462.132 112.848Z" fill="white"/>
<path d="M518.108 111.023V33.4589H521.838V111.023H518.108ZM520.048 16.4253C519.053 16.4253 518.157 16.0197 517.362 15.2086C516.566 14.3975 516.168 13.485 516.168 12.4711C516.168 11.3558 516.566 10.4432 517.362 9.73351C518.157 8.92239 519.053 8.51682 520.048 8.51682C521.142 8.51682 522.037 8.92239 522.734 9.73351C523.53 10.4432 523.928 11.3558 523.928 12.4711C523.928 13.485 523.53 14.3975 522.734 15.2086C522.037 16.0197 521.142 16.4253 520.048 16.4253Z" fill="white"/>
<path d="M581.278 113C587.446 113 593.365 111.53 599.036 108.589C604.806 105.649 609.482 101.239 613.064 95.358C616.745 89.4773 618.585 82.1772 618.585 73.4576V0H614.854V53.6864H614.407C612.616 49.428 610.029 45.6765 606.647 42.432C603.264 39.0861 599.384 36.45 595.007 34.5236C590.63 32.5971 586.003 31.6339 581.129 31.6339C574.662 31.6339 568.544 33.2055 562.774 36.3486C557.103 39.4917 552.477 44.105 548.895 50.1884C545.314 56.1705 543.523 63.5213 543.523 72.2409C543.523 79.0341 544.568 85.0162 546.657 90.1871C548.846 95.2566 551.731 99.515 555.312 102.962C558.993 106.308 563.072 108.843 567.549 110.567C572.026 112.189 576.602 113 581.278 113ZM581.427 109.502C575.757 109.502 570.285 108.133 565.012 105.396C559.839 102.557 555.561 98.3997 552.178 92.9246C548.895 87.3481 547.254 80.4536 547.254 72.2409C547.254 64.4338 548.895 57.7927 552.178 52.3176C555.461 46.7411 559.64 42.4827 564.714 39.5424C569.887 36.6021 575.309 35.1319 580.979 35.1319C586.65 35.1319 592.072 36.5514 597.245 39.3903C602.419 42.1279 606.647 46.2849 609.93 51.8614C613.213 57.3365 614.854 64.231 614.854 72.5451C614.854 80.7577 613.213 87.6016 609.93 93.0767C606.746 98.5518 602.568 102.658 597.395 105.396C592.321 108.133 586.998 109.502 581.427 109.502Z" fill="white"/>
<path d="M682.968 111.023C675.108 111.023 667.945 109.603 661.479 106.764C655.012 103.824 649.839 99.515 645.959 93.8371C642.179 88.0579 640.288 80.8591 640.288 72.2409C640.288 65.245 641.681 58.6546 644.467 52.4697C647.252 46.2849 651.232 41.266 656.405 37.4132C661.678 33.5603 667.995 31.6339 675.357 31.6339C682.122 31.6339 688.041 33.2055 693.115 36.3486C698.189 39.4917 702.119 43.7501 704.904 49.1238C707.69 54.4975 709.083 60.581 709.083 67.3742C709.083 69.6048 708.933 71.7847 708.635 73.9139H644.168C644.168 81.214 645.909 87.3988 649.391 92.4684C652.973 97.4365 657.599 101.188 663.27 103.723C669.04 106.258 675.208 107.525 681.774 107.525H699.681V111.023H682.968ZM644.168 70.4159H705.053C705.252 68.3881 705.203 65.904 704.904 62.9637C704.606 59.9219 703.86 56.8295 702.666 53.6864C701.571 50.4419 699.88 47.4509 697.592 44.7133C695.304 41.8744 692.319 39.5931 688.638 37.8694C684.957 36.0444 680.381 35.1319 674.909 35.1319C670.134 35.1319 665.856 36.1965 662.076 38.3257C658.295 40.3535 655.062 43.0911 652.376 46.5384C649.69 49.9856 647.65 53.7878 646.258 57.9448C644.865 62.1018 644.168 66.2589 644.168 70.4159Z" fill="white"/>
<path d="M765.499 113C757.938 113 751.273 111.226 745.502 107.677C739.732 104.027 735.206 99.1095 731.923 92.9246C728.64 86.7398 726.998 79.8452 726.998 72.2409C726.998 64.6366 728.64 57.742 731.923 51.5572C735.206 45.3724 739.732 40.5056 745.502 36.9569C751.273 33.3069 757.938 31.4818 765.499 31.4818C773.06 31.4818 779.726 33.3069 785.496 36.9569C791.266 40.5056 795.792 45.3724 799.075 51.5572C802.358 57.6406 804 64.5352 804 72.2409C804 79.8452 802.358 86.7398 799.075 92.9246C795.792 99.1095 791.266 104.027 785.496 107.677C779.726 111.226 773.06 113 765.499 113ZM765.499 109.502C772.264 109.502 778.233 107.88 783.406 104.635C788.679 101.289 792.808 96.8282 795.792 91.2517C798.777 85.5738 800.269 79.2369 800.269 72.2409C800.269 65.245 798.777 58.9587 795.792 53.3822C792.808 47.7043 788.679 43.2432 783.406 39.9987C778.233 36.6528 772.264 34.9798 765.499 34.9798C758.734 34.9798 752.715 36.6528 747.442 39.9987C742.269 43.2432 738.19 47.7043 735.206 53.3822C732.221 58.9587 730.729 65.245 730.729 72.2409C730.729 79.2369 732.221 85.5738 735.206 91.2517C738.19 96.8282 742.269 101.289 747.442 104.635C752.715 107.88 758.734 109.502 765.499 109.502Z" fill="white"/>
</svg>
